<mxfile host="app.diagrams.net" modified="2020-09-12T12:55:20.943Z" agent="5.0 (Windows)" etag="ka5Nhifr9hiepaFnsJL3" version="13.6.10" type="github">
  <diagram id="JUZ-aZVldM-WZ8tEQ8vl" name="Page-1">
    <mxGraphModel dx="1038" dy="547" grid="1" gridSize="10" guides="1" tooltips="1" connect="1" arrows="1" fold="1" page="1" pageScale="1" pageWidth="827" pageHeight="1169" background="none" math="0" shadow="0">
      <root>
        <mxCell id="0" />
        <mxCell id="1" parent="0" />
        <mxCell id="FA4hYa32smkLxe0XhBhG-5" value="" style="endArrow=none;html=1;edgeStyle=orthogonalEdgeStyle;" parent="1" source="FA4hYa32smkLxe0XhBhG-27" target="FA4hYa32smkLxe0XhBhG-58" edge="1">
          <mxGeometry relative="1" as="geometry">
            <mxPoint x="290" y="256" as="sourcePoint" />
            <mxPoint x="510" y="260.0000000000001" as="targetPoint" />
          </mxGeometry>
        </mxCell>
        <mxCell id="FA4hYa32smkLxe0XhBhG-6" value="&lt;div&gt;1&lt;/div&gt;" style="edgeLabel;resizable=0;html=1;align=left;verticalAlign=bottom;" parent="FA4hYa32smkLxe0XhBhG-5" connectable="0" vertex="1">
          <mxGeometry x="-1" relative="1" as="geometry">
            <mxPoint x="10" as="offset" />
          </mxGeometry>
        </mxCell>
        <mxCell id="FA4hYa32smkLxe0XhBhG-7" value="0..*" style="edgeLabel;resizable=0;html=1;align=right;verticalAlign=bottom;" parent="FA4hYa32smkLxe0XhBhG-5" connectable="0" vertex="1">
          <mxGeometry x="1" relative="1" as="geometry">
            <mxPoint x="-10" as="offset" />
          </mxGeometry>
        </mxCell>
        <mxCell id="FA4hYa32smkLxe0XhBhG-8" value="published_by" style="edgeLabel;html=1;align=center;verticalAlign=middle;resizable=0;points=[];" parent="FA4hYa32smkLxe0XhBhG-5" vertex="1" connectable="0">
          <mxGeometry x="-0.787" y="1" relative="1" as="geometry">
            <mxPoint x="55" y="11.420000000000002" as="offset" />
          </mxGeometry>
        </mxCell>
        <mxCell id="FA4hYa32smkLxe0XhBhG-11" value="" style="endArrow=none;html=1;rounded=0;dashed=1;dashPattern=1 2;" parent="1" source="FA4hYa32smkLxe0XhBhG-53" edge="1">
          <mxGeometry relative="1" as="geometry">
            <mxPoint x="410" y="190" as="sourcePoint" />
            <mxPoint x="260" y="270" as="targetPoint" />
          </mxGeometry>
        </mxCell>
        <mxCell id="FA4hYa32smkLxe0XhBhG-12" value="" style="resizable=0;html=1;align=right;verticalAlign=bottom;" parent="FA4hYa32smkLxe0XhBhG-11" connectable="0" vertex="1">
          <mxGeometry x="1" relative="1" as="geometry" />
        </mxCell>
        <mxCell id="FA4hYa32smkLxe0XhBhG-14" value="" style="endArrow=none;html=1;edgeStyle=orthogonalEdgeStyle;" parent="1" source="FA4hYa32smkLxe0XhBhG-42" target="FA4hYa32smkLxe0XhBhG-58" edge="1">
          <mxGeometry relative="1" as="geometry">
            <mxPoint x="570" y="420" as="sourcePoint" />
            <mxPoint x="580" y="290" as="targetPoint" />
          </mxGeometry>
        </mxCell>
        <mxCell id="FA4hYa32smkLxe0XhBhG-15" value="1" style="edgeLabel;resizable=0;html=1;align=left;verticalAlign=bottom;" parent="FA4hYa32smkLxe0XhBhG-14" connectable="0" vertex="1">
          <mxGeometry x="-1" relative="1" as="geometry">
            <mxPoint x="-26" y="-3" as="offset" />
          </mxGeometry>
        </mxCell>
        <mxCell id="FA4hYa32smkLxe0XhBhG-16" value="0..*" style="edgeLabel;resizable=0;html=1;align=right;verticalAlign=bottom;" parent="FA4hYa32smkLxe0XhBhG-14" connectable="0" vertex="1">
          <mxGeometry x="1" relative="1" as="geometry">
            <mxPoint x="-10" y="20" as="offset" />
          </mxGeometry>
        </mxCell>
        <mxCell id="FA4hYa32smkLxe0XhBhG-59" value="taken_by" style="edgeLabel;html=1;align=center;verticalAlign=middle;resizable=0;points=[];" parent="FA4hYa32smkLxe0XhBhG-14" vertex="1" connectable="0">
          <mxGeometry x="0.2755" y="1" relative="1" as="geometry">
            <mxPoint x="31" y="15" as="offset" />
          </mxGeometry>
        </mxCell>
        <mxCell id="FA4hYa32smkLxe0XhBhG-18" value="" style="endArrow=none;html=1;rounded=0;dashed=1;dashPattern=1 2;" parent="1" target="FA4hYa32smkLxe0XhBhG-22" edge="1">
          <mxGeometry relative="1" as="geometry">
            <mxPoint x="430" y="360" as="sourcePoint" />
            <mxPoint x="677" y="357.13903743315507" as="targetPoint" />
          </mxGeometry>
        </mxCell>
        <mxCell id="FA4hYa32smkLxe0XhBhG-63" value="" style="endArrow=none;html=1;edgeStyle=orthogonalEdgeStyle;" parent="1" source="FA4hYa32smkLxe0XhBhG-60" target="FA4hYa32smkLxe0XhBhG-58" edge="1">
          <mxGeometry relative="1" as="geometry">
            <mxPoint x="370" y="180.0000000000001" as="sourcePoint" />
            <mxPoint x="550" y="180.0000000000001" as="targetPoint" />
          </mxGeometry>
        </mxCell>
        <mxCell id="FA4hYa32smkLxe0XhBhG-64" value="&lt;div&gt;1&lt;/div&gt;" style="edgeLabel;resizable=0;html=1;align=left;verticalAlign=bottom;" parent="FA4hYa32smkLxe0XhBhG-63" connectable="0" vertex="1">
          <mxGeometry x="-1" relative="1" as="geometry">
            <mxPoint x="-26" y="22" as="offset" />
          </mxGeometry>
        </mxCell>
        <mxCell id="FA4hYa32smkLxe0XhBhG-65" value="0..*" style="edgeLabel;resizable=0;html=1;align=right;verticalAlign=bottom;" parent="FA4hYa32smkLxe0XhBhG-63" connectable="0" vertex="1">
          <mxGeometry x="1" relative="1" as="geometry">
            <mxPoint x="-10" y="-3.83" as="offset" />
          </mxGeometry>
        </mxCell>
        <mxCell id="FA4hYa32smkLxe0XhBhG-66" value="taken_to" style="edgeLabel;html=1;align=center;verticalAlign=middle;resizable=0;points=[];" parent="FA4hYa32smkLxe0XhBhG-63" vertex="1" connectable="0">
          <mxGeometry x="-0.787" y="1" relative="1" as="geometry">
            <mxPoint x="29" y="40.33" as="offset" />
          </mxGeometry>
        </mxCell>
        <mxCell id="cZ3DA8C6cK84-C7tu1Da-8" value="" style="endArrow=none;html=1;edgeStyle=orthogonalEdgeStyle;" parent="1" source="cZ3DA8C6cK84-C7tu1Da-3" target="FA4hYa32smkLxe0XhBhG-58" edge="1">
          <mxGeometry relative="1" as="geometry">
            <mxPoint x="590" y="267" as="sourcePoint" />
            <mxPoint x="440" y="260" as="targetPoint" />
          </mxGeometry>
        </mxCell>
        <mxCell id="cZ3DA8C6cK84-C7tu1Da-9" value="&lt;div&gt;1&lt;/div&gt;" style="edgeLabel;resizable=0;html=1;align=left;verticalAlign=bottom;" parent="cZ3DA8C6cK84-C7tu1Da-8" connectable="0" vertex="1">
          <mxGeometry x="-1" relative="1" as="geometry">
            <mxPoint x="-20" as="offset" />
          </mxGeometry>
        </mxCell>
        <mxCell id="cZ3DA8C6cK84-C7tu1Da-10" value="0..*" style="edgeLabel;resizable=0;html=1;align=right;verticalAlign=bottom;" parent="cZ3DA8C6cK84-C7tu1Da-8" connectable="0" vertex="1">
          <mxGeometry x="1" relative="1" as="geometry">
            <mxPoint x="30" as="offset" />
          </mxGeometry>
        </mxCell>
        <mxCell id="cZ3DA8C6cK84-C7tu1Da-11" value="have" style="edgeLabel;html=1;align=center;verticalAlign=middle;resizable=0;points=[];" parent="cZ3DA8C6cK84-C7tu1Da-8" vertex="1" connectable="0">
          <mxGeometry x="-0.787" y="1" relative="1" as="geometry">
            <mxPoint x="-40" y="12" as="offset" />
          </mxGeometry>
        </mxCell>
        <mxCell id="FA4hYa32smkLxe0XhBhG-58" value="Picture" style="swimlane;fontStyle=1;childLayout=stackLayout;horizontal=1;startSize=26;fillColor=none;horizontalStack=0;resizeParent=1;resizeParentMax=0;resizeLast=0;collapsible=1;marginBottom=0;" parent="1" vertex="1">
          <mxGeometry x="360" y="234" width="140" height="78" as="geometry" />
        </mxCell>
        <mxCell id="cZ3DA8C6cK84-C7tu1Da-1" value="ID" style="text;strokeColor=none;fillColor=none;align=left;verticalAlign=top;spacingLeft=4;spacingRight=4;overflow=hidden;rotatable=0;points=[[0,0.5],[1,0.5]];portConstraint=eastwest;fontStyle=4" parent="FA4hYa32smkLxe0XhBhG-58" vertex="1">
          <mxGeometry y="26" width="140" height="26" as="geometry" />
        </mxCell>
        <mxCell id="cZ3DA8C6cK84-C7tu1Da-2" value="date" style="text;strokeColor=none;fillColor=none;align=left;verticalAlign=top;spacingLeft=4;spacingRight=4;overflow=hidden;rotatable=0;points=[[0,0.5],[1,0.5]];portConstraint=eastwest;" parent="FA4hYa32smkLxe0XhBhG-58" vertex="1">
          <mxGeometry y="52" width="140" height="26" as="geometry" />
        </mxCell>
        <mxCell id="FA4hYa32smkLxe0XhBhG-53" value="" style="swimlane;fontStyle=1;childLayout=stackLayout;horizontal=1;startSize=26;fillColor=none;horizontalStack=0;resizeParent=1;resizeParentMax=0;resizeLast=0;collapsible=1;marginBottom=0;align=center;labelBackgroundColor=none;labelBorderColor=none;" parent="1" vertex="1">
          <mxGeometry x="190" y="150" width="140" height="52" as="geometry" />
        </mxCell>
        <mxCell id="FA4hYa32smkLxe0XhBhG-54" value="publication_date" style="text;strokeColor=none;fillColor=none;align=left;verticalAlign=top;spacingLeft=4;spacingRight=4;overflow=hidden;rotatable=0;points=[[0,0.5],[1,0.5]];portConstraint=eastwest;" parent="FA4hYa32smkLxe0XhBhG-53" vertex="1">
          <mxGeometry y="26" width="140" height="26" as="geometry" />
        </mxCell>
        <mxCell id="FA4hYa32smkLxe0XhBhG-60" value="Location" style="swimlane;fontStyle=1;childLayout=stackLayout;horizontal=1;startSize=26;fillColor=none;horizontalStack=0;resizeParent=1;resizeParentMax=0;resizeLast=0;collapsible=1;marginBottom=0;" parent="1" vertex="1">
          <mxGeometry x="360" y="50" width="140" height="104" as="geometry" />
        </mxCell>
        <mxCell id="IGt4OMnL4JDCSkMc5yp7-1" value="ID" style="text;strokeColor=none;fillColor=none;align=left;verticalAlign=top;spacingLeft=4;spacingRight=4;overflow=hidden;rotatable=0;points=[[0,0.5],[1,0.5]];portConstraint=eastwest;fontStyle=4" vertex="1" parent="FA4hYa32smkLxe0XhBhG-60">
          <mxGeometry y="26" width="140" height="26" as="geometry" />
        </mxCell>
        <mxCell id="FA4hYa32smkLxe0XhBhG-61" value="longitude" style="text;strokeColor=none;fillColor=none;align=left;verticalAlign=top;spacingLeft=4;spacingRight=4;overflow=hidden;rotatable=0;points=[[0,0.5],[1,0.5]];portConstraint=eastwest;" parent="FA4hYa32smkLxe0XhBhG-60" vertex="1">
          <mxGeometry y="52" width="140" height="26" as="geometry" />
        </mxCell>
        <mxCell id="FA4hYa32smkLxe0XhBhG-62" value="latitude" style="text;strokeColor=none;fillColor=none;align=left;verticalAlign=top;spacingLeft=4;spacingRight=4;overflow=hidden;rotatable=0;points=[[0,0.5],[1,0.5]];portConstraint=eastwest;" parent="FA4hYa32smkLxe0XhBhG-60" vertex="1">
          <mxGeometry y="78" width="140" height="26" as="geometry" />
        </mxCell>
        <mxCell id="FA4hYa32smkLxe0XhBhG-27" value="User" style="swimlane;fontStyle=1;childLayout=stackLayout;horizontal=1;startSize=26;fillColor=none;horizontalStack=0;resizeParent=1;resizeParentMax=0;resizeLast=0;collapsible=1;marginBottom=0;" parent="1" vertex="1">
          <mxGeometry x="40" y="247" width="140" height="52" as="geometry">
            <mxRectangle x="160" y="134" width="90" height="26" as="alternateBounds" />
          </mxGeometry>
        </mxCell>
        <mxCell id="IGt4OMnL4JDCSkMc5yp7-3" value="ID" style="text;strokeColor=none;fillColor=none;align=left;verticalAlign=top;spacingLeft=4;spacingRight=4;overflow=hidden;rotatable=0;points=[[0,0.5],[1,0.5]];portConstraint=eastwest;fontStyle=4" vertex="1" parent="FA4hYa32smkLxe0XhBhG-27">
          <mxGeometry y="26" width="140" height="26" as="geometry" />
        </mxCell>
        <mxCell id="FA4hYa32smkLxe0XhBhG-22" value="Configuration" style="swimlane;fontStyle=1;childLayout=stackLayout;horizontal=1;startSize=26;fillColor=none;horizontalStack=0;resizeParent=1;resizeParentMax=0;resizeLast=0;collapsible=1;marginBottom=0;" parent="1" vertex="1">
          <mxGeometry x="180" y="325" width="140" height="156" as="geometry" />
        </mxCell>
        <mxCell id="IGt4OMnL4JDCSkMc5yp7-4" value="ID" style="text;strokeColor=none;fillColor=none;align=left;verticalAlign=top;spacingLeft=4;spacingRight=4;overflow=hidden;rotatable=0;points=[[0,0.5],[1,0.5]];portConstraint=eastwest;fontStyle=4" vertex="1" parent="FA4hYa32smkLxe0XhBhG-22">
          <mxGeometry y="26" width="140" height="26" as="geometry" />
        </mxCell>
        <mxCell id="FA4hYa32smkLxe0XhBhG-23" value="focal_aperture" style="text;strokeColor=none;fillColor=none;align=left;verticalAlign=top;spacingLeft=4;spacingRight=4;overflow=hidden;rotatable=0;points=[[0,0.5],[1,0.5]];portConstraint=eastwest;" parent="FA4hYa32smkLxe0XhBhG-22" vertex="1">
          <mxGeometry y="52" width="140" height="26" as="geometry" />
        </mxCell>
        <mxCell id="FA4hYa32smkLxe0XhBhG-24" value="exposure_time" style="text;strokeColor=none;fillColor=none;align=left;verticalAlign=top;spacingLeft=4;spacingRight=4;overflow=hidden;rotatable=0;points=[[0,0.5],[1,0.5]];portConstraint=eastwest;" parent="FA4hYa32smkLxe0XhBhG-22" vertex="1">
          <mxGeometry y="78" width="140" height="26" as="geometry" />
        </mxCell>
        <mxCell id="FA4hYa32smkLxe0XhBhG-25" value="flash" style="text;strokeColor=none;fillColor=none;align=left;verticalAlign=top;spacingLeft=4;spacingRight=4;overflow=hidden;rotatable=0;points=[[0,0.5],[1,0.5]];portConstraint=eastwest;" parent="FA4hYa32smkLxe0XhBhG-22" vertex="1">
          <mxGeometry y="104" width="140" height="26" as="geometry" />
        </mxCell>
        <mxCell id="FA4hYa32smkLxe0XhBhG-26" value="focal_distance" style="text;strokeColor=none;fillColor=none;align=left;verticalAlign=top;spacingLeft=4;spacingRight=4;overflow=hidden;rotatable=0;points=[[0,0.5],[1,0.5]];portConstraint=eastwest;" parent="FA4hYa32smkLxe0XhBhG-22" vertex="1">
          <mxGeometry y="130" width="140" height="26" as="geometry" />
        </mxCell>
        <mxCell id="FA4hYa32smkLxe0XhBhG-42" value="Camera" style="swimlane;fontStyle=1;childLayout=stackLayout;horizontal=1;startSize=26;fillColor=none;horizontalStack=0;resizeParent=1;resizeParentMax=0;resizeLast=0;collapsible=1;marginBottom=0;" parent="1" vertex="1">
          <mxGeometry x="360" y="403" width="140" height="52" as="geometry" />
        </mxCell>
        <mxCell id="IGt4OMnL4JDCSkMc5yp7-2" value="ID" style="text;strokeColor=none;fillColor=none;align=left;verticalAlign=top;spacingLeft=4;spacingRight=4;overflow=hidden;rotatable=0;points=[[0,0.5],[1,0.5]];portConstraint=eastwest;fontStyle=4" vertex="1" parent="FA4hYa32smkLxe0XhBhG-42">
          <mxGeometry y="26" width="140" height="26" as="geometry" />
        </mxCell>
        <mxCell id="cZ3DA8C6cK84-C7tu1Da-3" value="&lt;&lt;enumeration&gt;&gt;&#xa;Publishing_License" style="swimlane;fontStyle=1;childLayout=stackLayout;horizontal=1;startSize=26;fillColor=none;horizontalStack=0;resizeParent=1;resizeParentMax=0;resizeLast=0;collapsible=1;marginBottom=0;" parent="1" vertex="1">
          <mxGeometry x="590" y="221" width="220" height="104" as="geometry" />
        </mxCell>
        <mxCell id="cZ3DA8C6cK84-C7tu1Da-5" value="All_rights_reserved" style="text;strokeColor=none;fillColor=none;align=left;verticalAlign=top;spacingLeft=4;spacingRight=4;overflow=hidden;rotatable=0;points=[[0,0.5],[1,0.5]];portConstraint=eastwest;" parent="cZ3DA8C6cK84-C7tu1Da-3" vertex="1">
          <mxGeometry y="26" width="220" height="26" as="geometry" />
        </mxCell>
        <mxCell id="cZ3DA8C6cK84-C7tu1Da-6" value="Authorized_commercial_use" style="text;strokeColor=none;fillColor=none;align=left;verticalAlign=top;spacingLeft=4;spacingRight=4;overflow=hidden;rotatable=0;points=[[0,0.5],[1,0.5]];portConstraint=eastwest;" parent="cZ3DA8C6cK84-C7tu1Da-3" vertex="1">
          <mxGeometry y="52" width="220" height="26" as="geometry" />
        </mxCell>
        <mxCell id="cZ3DA8C6cK84-C7tu1Da-7" value="Image_modifications_allowed" style="text;strokeColor=none;fillColor=none;align=left;verticalAlign=top;spacingLeft=4;spacingRight=4;overflow=hidden;rotatable=0;points=[[0,0.5],[1,0.5]];portConstraint=eastwest;" parent="cZ3DA8C6cK84-C7tu1Da-3" vertex="1">
          <mxGeometry y="78" width="220" height="26" as="geometry" />
        </mxCell>
      </root>
    </mxGraphModel>
  </diagram>
</mxfile>
